<?xml version="1.0" encoding="utf-8"?>
<!-- Generator: Adobe Illustrator 25.2.3, SVG Export Plug-In . SVG Version: 6.00 Build 0)  -->
<svg version="1.1" id="Layer_1" xmlns="http://www.w3.org/2000/svg" xmlns:xlink="http://www.w3.org/1999/xlink" x="0px" y="0px"
	 viewBox="0 0 455 185" style="enable-background:new 0 0 455 185;" xml:space="preserve">
<style type="text/css">
	.st0{fill:#FFFFFF;}
	.st1{fill:#FFFFFF;stroke:#000000;stroke-miterlimit:10;}
	.st2{fill:none;stroke:#FFFFFF;stroke-width:3;stroke-miterlimit:10;}
	.st3{fill:none;}
	.st4{font-family:'FuturaStd-HeavyOblique';}
	.st5{font-size:46px;}
</style>
<g>
	<path class="st0" d="M127.66,73.46c-2.07-4.64-5.15-9.12-9.19-13.12c-4.33-4.24-9.37-7.68-14.89-10.18
		c2.68-2.15,7.47-2.94,12.25-1.87c4.79,1.01,9.57,3.88,12.53,7.81C134.29,64.18,131.74,71.79,127.66,73.46z"/>
	<path class="st0" d="M81.1,141.06c-2.1-1.18-4.3-2.37-6.59-3.55c-0.05-0.02,0.06,0.04,0,0c-2.32-1.33-4.74-2.67-7.26-4
		c-0.47-0.37-0.8-0.89-0.93-1.47c-2.73-14.23-0.59-28.98,6.5-43.84c6.1-12.6,15.78-25.28,29.12-37.78c1.28-1.19,3.18-0.69,2.24,0.6
		C93.95,65.11,86.91,79.59,83,93.98c-4.22,15.69-4.74,31.3-1.57,46.21C81.56,140.79,81.41,141.17,81.1,141.06z"/>
	<path class="st0" d="M70.6,52.79c5.28-1.87,10.79-3.02,16.37-3.42c5.69-0.41,11.42-0.05,17.02,1.06c1.01-4.02-7.02-9.4-17.66-8.6
		C75.69,42.64,69,48.98,70.6,52.79z"/>
	<path class="st1" d="M76.05,135.96c-1.79-0.22-3.57-0.44-5.33-0.66c-0.04,0,0.05,0.02,0,0l-5.4-1.14c-0.3-0.12-0.73-0.67-0.96-1.22
		c-5.76-14.52-8.35-29.51-7.67-44.63c0.64-12.85,3.66-25.8,9.19-38.62c0.53-1.22,2.86-1.8,2.73-0.66
		c-1.41,12.42-1.71,26.01-0.69,39.98c1.14,15.2,3.86,30.86,8.29,45.83C76.37,135.42,76.31,135.93,76.05,135.96z"/>
	<path class="st0" d="M154.3,141.73h-122c0-9.27,27.31-16.78,61-16.78S154.3,132.46,154.3,141.73z"/>
	<path class="st0" d="M33.82,52.13c5.28-1.87,10.79-3.02,16.37-3.42c5.69-0.41,11.42-0.05,17.02,1.06c1.01-4.02-7.02-9.4-17.66-8.6
		S32.21,48.32,33.82,52.13z"/>
	<path class="st0" d="M90.87,72.81c-2.07-4.64-5.15-9.12-9.19-13.12C77.35,55.44,72.32,52,66.8,49.5c2.69-2.15,7.47-2.94,12.25-1.87
		c4.79,1.01,9.57,3.88,12.53,7.81C97.5,63.51,94.95,71.12,90.87,72.81z"/>
	<circle class="st2" cx="93.3" cy="92.5" r="86"/>
	<rect x="186.53" y="78.61" class="st3" width="261.18" height="42.37"/>
	<text transform="matrix(1 0 0 1 186.5311 117.6138)" class="st0 st4 st5">GreenIsle plc</text>
</g>
</svg>
